<?xml version="1.0" encoding="UTF-8"?>
<svg width="443px" height="880px" viewBox="0 0 443 880" version="1.1" xmlns="http://www.w3.org/2000/svg" xmlns:xlink="http://www.w3.org/1999/xlink">
    <!-- Generator: Sketch 64 (93537) - https://sketch.com -->
    <title>iPhone_X_Clay_Black</title>
    <desc>Created with Sketch.</desc>
    <defs>
        <linearGradient x1="100%" y1="50%" x2="2.53308355%" y2="50%" id="linearGradient-1">
            <stop stop-color="#000000" offset="0%"></stop>
            <stop stop-color="#888888" offset="100%"></stop>
        </linearGradient>
        <path d="M3,140 C4.65685425,140 6,141.343146 6,143 L6,199 C6,200.656854 4.65685425,202 3,202 C1.34314575,202 2.02906125e-16,200.656854 0,199 L0,143 C-2.02906125e-16,141.343146 1.34314575,140 3,140 Z M3,62 C4.65685425,62 6,63.3431458 6,65 L6,121 C6,122.656854 4.65685425,124 3,124 C1.34314575,124 2.02906125e-16,122.656854 0,121 L0,65 C-2.02906125e-16,63.3431458 1.34314575,62 3,62 Z M3,0 C4.65685425,-3.04359188e-16 6,1.34314575 6,3 L6,29 C6,30.6568542 4.65685425,32 3,32 C1.34314575,32 2.02906125e-16,30.6568542 0,29 L0,3 C-2.02906125e-16,1.34314575 1.34314575,3.04359188e-16 3,0 Z" id="path-2"></path>
        <filter x="-8.3%" y="-0.2%" width="116.7%" height="100.5%" filterUnits="objectBoundingBox" id="filter-3">
            <feOffset dx="1" dy="0" in="SourceAlpha" result="shadowOffsetInner1"></feOffset>
            <feComposite in="shadowOffsetInner1" in2="SourceAlpha" operator="arithmetic" k2="-1" k3="1" result="shadowInnerInner1"></feComposite>
            <feColorMatrix values="0 0 0 0 0   0 0 0 0 0   0 0 0 0 0  0 0 0 0.2 0" type="matrix" in="shadowInnerInner1"></feColorMatrix>
        </filter>
        <linearGradient x1="100%" y1="50%" x2="0%" y2="50%" id="linearGradient-4">
            <stop stop-color="#000000" offset="0%"></stop>
            <stop stop-color="#888888" offset="97.4669165%"></stop>
        </linearGradient>
        <rect id="path-5" x="427" y="84" width="6" height="96" rx="3"></rect>
        <filter x="-8.3%" y="-0.5%" width="116.7%" height="101.0%" filterUnits="objectBoundingBox" id="filter-6">
            <feOffset dx="1" dy="0" in="SourceAlpha" result="shadowOffsetInner1"></feOffset>
            <feComposite in="shadowOffsetInner1" in2="SourceAlpha" operator="arithmetic" k2="-1" k3="1" result="shadowInnerInner1"></feComposite>
            <feColorMatrix values="0 0 0 0 0   0 0 0 0 0   0 0 0 0 0  0 0 0 0.2 0" type="matrix" in="shadowInnerInner1"></feColorMatrix>
        </filter>
        <linearGradient x1="50%" y1="50%" x2="50%" y2="98.8490513%" id="linearGradient-7">
            <stop stop-color="#333333" offset="0%"></stop>
            <stop stop-color="#333333" offset="100%"></stop>
        </linearGradient>
        <linearGradient x1="50%" y1="100%" x2="50%" y2="0%" id="linearGradient-8">
            <stop stop-color="#000000" stop-opacity="0" offset="0%"></stop>
            <stop stop-color="#000000" stop-opacity="0.3" offset="100%"></stop>
        </linearGradient>
        <path d="M366,0 C401.346224,-6.49299601e-15 430,28.653776 430,64 L430,800 C430,835.346224 401.346224,864 366,864 L67,864 C31.653776,864 3,835.346224 3,800 L3,64 C3,28.653776 31.653776,6.49299601e-15 67,0 L366,0 Z M106.25,26 L67,26 C46.0131795,26 29,43.0131795 29,64 L29,64 L29,800 C29,820.98682 46.0131795,838 67,838 L67,838 L366,838 C386.98682,838 404,820.98682 404,800 L404,800 L404,64 C404,43.0131795 386.98682,26 366,26 L366,26 L326.743536,26 C324.18624,26.1356691 322.135669,28.1862404 322,30.75 C322,45.254834 311.254834,56 298,56 L298,56 L135,56 C121.745166,56 111,45.254834 110.993536,30.7435363 C110.864331,28.1862404 108.81376,26.1356691 106.25,26 L106.25,26 Z" id="path-9"></path>
        <filter x="-3.3%" y="-1.2%" width="106.6%" height="103.2%" filterUnits="objectBoundingBox" id="filter-10">
            <feOffset dx="0" dy="4" in="SourceAlpha" result="shadowOffsetOuter1"></feOffset>
            <feGaussianBlur stdDeviation="4" in="shadowOffsetOuter1" result="shadowBlurOuter1"></feGaussianBlur>
            <feComposite in="shadowBlurOuter1" in2="SourceAlpha" operator="out" result="shadowBlurOuter1"></feComposite>
            <feColorMatrix values="0 0 0 0 0.121568627   0 0 0 0 0.117647059   0 0 0 0 0.301960784  0 0 0 0.24 0" type="matrix" in="shadowBlurOuter1"></feColorMatrix>
        </filter>
        <filter x="-3.3%" y="-1.2%" width="106.6%" height="103.2%" filterUnits="objectBoundingBox" id="filter-11">
            <feGaussianBlur stdDeviation="6" in="SourceAlpha" result="shadowBlurInner1"></feGaussianBlur>
            <feOffset dx="0" dy="0" in="shadowBlurInner1" result="shadowOffsetInner1"></feOffset>
            <feComposite in="shadowOffsetInner1" in2="SourceAlpha" operator="arithmetic" k2="-1" k3="1" result="shadowInnerInner1"></feComposite>
            <feColorMatrix values="0 0 0 0 1   0 0 0 0 1   0 0 0 0 1  0 0 0 0.4 0" type="matrix" in="shadowInnerInner1"></feColorMatrix>
        </filter>
        <linearGradient x1="50%" y1="50%" x2="50%" y2="98.8490513%" id="linearGradient-12">
            <stop stop-color="#222222" offset="0%"></stop>
            <stop stop-color="#111111" offset="100%"></stop>
        </linearGradient>
        <linearGradient x1="50%" y1="0%" x2="50%" y2="98.4713807%" id="linearGradient-13">
            <stop stop-color="#000000" stop-opacity="0" offset="0%"></stop>
            <stop stop-color="#000000" stop-opacity="0.2" offset="100%"></stop>
        </linearGradient>
        <linearGradient x1="50%" y1="0%" x2="50%" y2="100%" id="linearGradient-14">
            <stop stop-color="#111111" stop-opacity="0.6" offset="0%"></stop>
            <stop stop-color="#000000" offset="100%"></stop>
        </linearGradient>
        <path d="M351,0 C384.137085,-6.08718376e-15 411,26.862915 411,60 L411,788 C411,821.137085 384.137085,848 351,848 L60,848 C26.862915,848 4.05812251e-15,821.137085 0,788 L0,60 C-1.82689772e-14,26.862915 26.862915,6.08718376e-15 60,0 L351,0 Z M95.25,18 L56,18 C35.0131795,18 18,35.0131795 18,56 L18,56 L18,792 C18,812.98682 35.0131795,830 56,830 L56,830 L355,830 C375.98682,830 393,812.98682 393,792 L393,792 L393,56 C393,35.0131795 375.98682,18 355,18 L355,18 L315.743536,18 C313.18624,18.1356691 311.135669,20.1862404 311,22.75 C311,37.254834 300.254834,48 287,48 L287,48 L124,48 C110.745166,48 100,37.254834 99.9935363,22.7435363 C99.8643309,20.1862404 97.8137596,18.1356691 95.25,18 L95.25,18 Z" id="path-15"></path>
        <filter x="-1.7%" y="-0.8%" width="103.4%" height="101.7%" filterUnits="objectBoundingBox" id="filter-17">
            <feMorphology radius="1" operator="dilate" in="SourceAlpha" result="shadowSpreadOuter1"></feMorphology>
            <feOffset dx="0" dy="0" in="shadowSpreadOuter1" result="shadowOffsetOuter1"></feOffset>
            <feGaussianBlur stdDeviation="2" in="shadowOffsetOuter1" result="shadowBlurOuter1"></feGaussianBlur>
            <feComposite in="shadowBlurOuter1" in2="SourceAlpha" operator="out" result="shadowBlurOuter1"></feComposite>
            <feColorMatrix values="0 0 0 0 0   0 0 0 0 0   0 0 0 0 0  0 0 0 0.2 0" type="matrix" in="shadowBlurOuter1"></feColorMatrix>
        </filter>
        <filter x="-2.7%" y="-1.3%" width="105.4%" height="102.6%" filterUnits="objectBoundingBox" id="filter-18">
            <feGaussianBlur stdDeviation="6" in="SourceAlpha" result="shadowBlurInner1"></feGaussianBlur>
            <feOffset dx="0" dy="0" in="shadowBlurInner1" result="shadowOffsetInner1"></feOffset>
            <feComposite in="shadowOffsetInner1" in2="SourceAlpha" operator="arithmetic" k2="-1" k3="1" result="shadowInnerInner1"></feComposite>
            <feColorMatrix values="0 0 0 0 1   0 0 0 0 1   0 0 0 0 1  0 0 0 0.25 0" type="matrix" in="shadowInnerInner1"></feColorMatrix>
        </filter>
        <linearGradient x1="50%" y1="100%" x2="50%" y2="0%" id="linearGradient-19">
            <stop stop-color="#222222" offset="0%"></stop>
            <stop stop-color="#111111" offset="100%"></stop>
        </linearGradient>
        <circle id="path-20" cx="6.5" cy="6.5" r="6.5"></circle>
        <filter x="-3.8%" y="-3.8%" width="107.7%" height="115.4%" filterUnits="objectBoundingBox" id="filter-21">
            <feOffset dx="0" dy="1" in="SourceAlpha" result="shadowOffsetOuter1"></feOffset>
            <feColorMatrix values="0 0 0 0 1   0 0 0 0 1   0 0 0 0 1  0 0 0 0.1 0" type="matrix" in="shadowOffsetOuter1"></feColorMatrix>
        </filter>
        <linearGradient x1="50%" y1="100%" x2="50%" y2="0%" id="linearGradient-22">
            <stop stop-color="#222222" offset="0%"></stop>
            <stop stop-color="#000000" offset="100%"></stop>
        </linearGradient>
        <linearGradient x1="50%" y1="100%" x2="50%" y2="0.273038903%" id="linearGradient-23">
            <stop stop-color="#090E1A" offset="0%"></stop>
            <stop stop-color="#2D5283" offset="100%"></stop>
        </linearGradient>
        <circle id="path-24" cx="6.5" cy="6.5" r="3.5"></circle>
        <linearGradient x1="50%" y1="100%" x2="50%" y2="0.273038903%" id="linearGradient-26">
            <stop stop-color="#000000" offset="0%"></stop>
            <stop stop-color="#67A3E7" offset="100%"></stop>
        </linearGradient>
        <linearGradient x1="50%" y1="100%" x2="50%" y2="0%" id="linearGradient-27">
            <stop stop-color="#333333" offset="0%"></stop>
            <stop stop-color="#111111" offset="100%"></stop>
        </linearGradient>
        <rect id="path-28" x="0" y="3" width="53" height="7" rx="3.5"></rect>
        <filter x="-0.9%" y="-7.1%" width="101.9%" height="128.6%" filterUnits="objectBoundingBox" id="filter-29">
            <feOffset dx="0" dy="1" in="SourceAlpha" result="shadowOffsetOuter1"></feOffset>
            <feColorMatrix values="0 0 0 0 1   0 0 0 0 1   0 0 0 0 1  0 0 0 0.1 0" type="matrix" in="shadowOffsetOuter1"></feColorMatrix>
        </filter>
    </defs>
    <g id="Page-1" stroke="none" stroke-width="1" fill="none" fill-rule="evenodd">
        <g id="iPhoneX_Mockup" transform="translate(-205.000000, -89.000000)">
            <g id="iPhone_X_Clay_Black" transform="translate(210.000000, 93.000000)">
                <g id="Outer_Frame">
                    <path d="M366,0 C401.346224,-6.49299601e-15 430,28.653776 430,64 L430,800 C430,835.346224 401.346224,864 366,864 L67,864 C31.653776,864 3,835.346224 3,800 L3,64 C3,28.653776 31.653776,6.49299601e-15 67,0 L366,0 Z M106.25,26 L67,26 C46.0131795,26 29,43.0131795 29,64 L29,64 L29,800 C29,820.98682 46.0131795,838 67,838 L67,838 L366,838 C386.98682,838 404,820.98682 404,800 L404,800 L404,64 C404,43.0131795 386.98682,26 366,26 L366,26 L326.743536,26 C324.18624,26.1356691 322.135669,28.1862404 322,30.75 C322,45.254834 311.254834,56 298,56 L298,56 L135,56 C121.745166,56 111,45.254834 110.993536,30.7435363 C110.864331,28.1862404 108.81376,26.1356691 106.25,26 L106.25,26 Z" id="Combined-Shape"></path>
                    <g id="Bar" transform="translate(0.000000, 118.000000)">
                        <g id="Left-Bar">
                            <use fill="url(#linearGradient-1)" fill-rule="evenodd" xlink:href="#path-2"></use>
                            <use fill="black" fill-opacity="1" filter="url(#filter-3)" xlink:href="#path-2"></use>
                        </g>
                        <g id="Right-Bar" transform="translate(430.000000, 132.000000) rotate(-180.000000) translate(-430.000000, -132.000000) ">
                            <use fill="url(#linearGradient-4)" fill-rule="evenodd" xlink:href="#path-5"></use>
                            <use fill="black" fill-opacity="1" filter="url(#filter-6)" xlink:href="#path-5"></use>
                        </g>
                    </g>
                    <g id="Combined-Shape">
                        <use fill="black" fill-opacity="1" filter="url(#filter-10)" xlink:href="#path-9"></use>
                        <use fill-opacity="0.7" fill="url(#linearGradient-7)" fill-rule="evenodd" xlink:href="#path-9"></use>
                        <use fill="url(#linearGradient-8)" fill-rule="evenodd" xlink:href="#path-9"></use>
                        <use fill="black" fill-opacity="1" filter="url(#filter-11)" xlink:href="#path-9"></use>
                        <path stroke-opacity="0.1" stroke="#000000" stroke-width="1" d="M366,0.5 C383.535041,0.5 399.410041,7.6074796 410.901281,19.0987194 C422.39252,30.5899592 429.5,46.4649592 429.5,64 L429.5,64 L429.5,800 C429.5,817.535041 422.39252,833.410041 410.901281,844.901281 C399.410041,856.39252 383.535041,863.5 366,863.5 L366,863.5 L67,863.5 C49.4649592,863.5 33.5899592,856.39252 22.0987194,844.901281 C10.6074796,833.410041 3.5,817.535041 3.5,800 L3.5,800 L3.5,64 C3.5,46.4649592 10.6074796,30.5899592 22.0987194,19.0987194 C33.5899592,7.6074796 49.4649592,0.5 67,0.5 L67,0.5 Z M326.730594,25.5 C325.318615,25.5714678 324.046197,26.1735446 323.109131,27.1118877 C322.175813,28.0464769 321.575261,29.314557 321.5,30.75 C321.5,37.7394331 318.959945,43.8411776 314.780655,48.2381388 C310.547055,52.6922386 304.633657,55.3939056 297.992009,55.5000639 L135,55.5 C128.449391,55.5 122.524814,52.8190842 118.263412,48.335794 C114.076428,43.9307973 111.496674,37.7883538 111.492899,30.7183064 C111.421833,29.3117223 110.822553,28.0443786 109.888279,27.1101047 C108.951454,26.1732793 107.677854,25.571453 106.262911,25.5 L67,25.5 C56.4837467,25.5 46.9522804,29.7163602 40.0038624,36.5507889 C33.0436201,43.3968481 28.675294,52.8699152 28.5051566,63.3634948 L28.5000164,63.9959494 L28.5,800 C28.5,810.516253 32.7163602,820.04772 39.5507889,826.996138 C46.3968481,833.95638 55.8699152,838.324706 66.3634948,838.494843 L66.9959494,838.499984 L366,838.5 C376.516253,838.5 386.04772,834.28364 392.996138,827.449211 C399.95638,820.603152 404.324706,811.130085 404.494843,800.636505 L404.499984,800.004051 L404.5,64 C404.5,53.4837467 400.28364,43.9522804 393.449211,37.0038624 C386.603152,30.0436201 377.130085,25.675294 366.636505,25.5051566 L366.004051,25.5000164 L326.730594,25.5 Z" stroke-linejoin="square"></path>
                    </g>
                    <path d="M29,774 L29,780 L3,780 L3,774 L29,774 Z M430,774 L430,780 L404,780 L404,774 L430,774 Z M29,84 L29,90 L3,90 L3,84 L29,84 Z M430,84 L430,90 L404,90 L404,84 L430,84 Z" id="Combined-Shape" fill="#000000" opacity="0.100000001"></path>
                </g>
                <g id="Inner_Frame" transform="translate(11.000000, 8.000000)">
                    <mask id="mask-16" fill="white">
                        <use xlink:href="#path-15"></use>
                    </mask>
                    <g id="Combined-Shape">
                        <use fill="black" fill-opacity="1" filter="url(#filter-17)" xlink:href="#path-15"></use>
                        <use fill="url(#linearGradient-12)" fill-rule="evenodd" xlink:href="#path-15"></use>
                        <use fill="url(#linearGradient-13)" fill-rule="evenodd" xlink:href="#path-15"></use>
                        <use fill="black" fill-opacity="1" filter="url(#filter-18)" xlink:href="#path-15"></use>
                        <path stroke="url(#linearGradient-14)" stroke-width="1" d="M351,-0.5 C367.706614,-0.5 382.831614,6.27169316 393.77996,17.2200397 C404.728307,28.1683863 411.5,43.2933863 411.5,60 L411.5,60 L411.5,788 C411.5,804.706614 404.728307,819.831614 393.77996,830.77996 C382.831614,841.728307 367.706614,848.5 351,848.5 L351,848.5 L60,848.5 C43.2933863,848.5 28.1683863,841.728307 17.2200397,830.77996 C6.27169316,819.831614 -0.5,804.706614 -0.5,788 L-0.5,788 L-0.5,60 C-0.5,43.2933863 6.27169316,28.1683863 17.2200397,17.2200397 C28.1683863,6.27169316 43.2933863,-0.5 60,-0.5 L60,-0.5 Z M354.995949,18.4999836 L315.757135,18.5 C314.610822,18.5640657 313.578463,19.0557306 312.816719,19.8185129 C312.055193,20.5810767 311.564036,21.6146923 311.500001,22.7635373 C311.496764,30.025431 308.846755,36.3596886 304.505475,40.9270769 C300.09311,45.5692527 293.931295,48.389276 287.007991,48.4999361 L124,48.5 C117.165477,48.5 110.984548,45.702186 106.538596,41.0247369 C102.190406,36.4501394 99.500084,30.0751542 99.4935453,22.7571679 C99.4326175,21.6108451 98.9427667,20.5788057 98.1811726,19.8172115 C97.4193294,19.0553684 96.3855128,18.5640411 95.2364378,18.5 L56,18.5 C45.7569161,18.5 36.4730274,22.6068174 29.7050972,29.2637194 C22.9257138,35.9318866 18.6707423,45.1587554 18.5050252,55.3797062 L18.4999836,56.0040506 L18.5,792 C18.5,802.243084 22.6068174,811.526973 29.2637194,818.294903 C35.9318866,825.074286 45.1587554,829.329258 55.3797062,829.494975 L56.0040506,829.500016 L355,829.5 C365.243084,829.5 374.526973,825.393183 381.294903,818.736281 C388.074286,812.068113 392.329258,802.841245 392.494975,792.620294 L392.500016,791.995949 L392.5,56 C392.5,45.7569161 388.393183,36.4730274 381.736281,29.7050972 C375.068113,22.9257138 365.841245,18.6707423 355.620294,18.5050252 L354.995949,18.4999836 Z"></path>
                    </g>
                    <polygon id="Shadow" opacity="0.100000001" mask="url(#mask-16)" points="-2 0 62 0 62 848 -2 848"></polygon>
                    <polygon id="Shadow" opacity="0.100000001" mask="url(#mask-16)" transform="translate(379.000000, 424.000000) scale(-1, 1) translate(-379.000000, -424.000000) " points="347 0 411 0 411 848 347 848"></polygon>
                </g>
                <g id="Screen" transform="translate(29.000000, 26.000000)"></g>
                <g id="Top" transform="translate(190.000000, 27.000000)">
                    <g id="Camera_01" transform="translate(65.000000, 0.000000)">
                        <g id="Outline_02">
                            <use fill="black" fill-opacity="1" filter="url(#filter-21)" xlink:href="#path-20"></use>
                            <use fill="url(#linearGradient-19)" fill-rule="evenodd" xlink:href="#path-20"></use>
                        </g>
                        <circle id="Outline_01" fill="url(#linearGradient-22)" cx="6.5" cy="6.5" r="4.5"></circle>
                        <mask id="mask-25" fill="white">
                            <use xlink:href="#path-24"></use>
                        </mask>
                        <use id="Lens" fill="url(#linearGradient-23)" xlink:href="#path-24"></use>
                        <path d="M6.5,4.99578994 C8.43299662,4.99578994 10,5.75018311 10,6 C10,4.62219457 8.43299662,3 6.5,3 C4.56700338,3 3,4.62219457 3,6 C3,5.75 4.56700338,4.99578994 6.5,4.99578994 Z" id="Highlight" fill="url(#linearGradient-26)" opacity="0.5" mask="url(#mask-25)"></path>
                    </g>
                    <g id="Bar_02">
                        <use fill="black" fill-opacity="1" filter="url(#filter-29)" xlink:href="#path-28"></use>
                        <use fill="url(#linearGradient-27)" fill-rule="evenodd" xlink:href="#path-28"></use>
                    </g>
                </g>
            </g>
        </g>
    </g>
</svg>